<svg xmlns="http://www.w3.org/2000/svg" viewBox="0 0 280 64" fill="none" role="img" aria-label="KUCHUP">
  <g transform="translate(2,2) scale(0.55)">
    <path fill="#163A5F" d="M22 58c10-6 22-18 34-30 10-10 22-20 36-26 3-1.2 5.5.8 5.2 3.6-.6 8-4 17.5-9.5 25.5l-9 13.5c-3.2 4.8-2.6 10.5 1.2 14.5l11 12.5c2 2.2.4 5.8-2.6 6-7 .4-15.5-3.2-22-10.5l-8.5-10c-3-3.8-8-5.2-12.8-3.6L28 58c-3.5 1.2-7.2-1.8-6-5z"/>
    <path fill="#163A5F" d="M48 46c9 2.5 16 12 17.5 22 .8 4.2-2.2 6.8-5.6 5.2L46 66c-5-3-8.2-9-9-15-.6-4 2.8-7.2 11-5z"/>
    <path fill="#FF6B35" d="M72 10c7-2.2 16-.2 22.5 6.5 1.8 1.8.2 4.8-2.2 4.6-7.5.8-15.2-1.8-20.5-6-3-2.2-2.2-5.2.2-5.1z"/>
    <path fill="#FF6B35" d="M26 74c5.5 3.2 11 9.5 12 15 .8 3.2-1.8 4.6-3.8 3L22 82c-3-2-2.2-7.2 4-8z"/>
    <path fill="#F8FAFC" d="M46 52c8-.2 15.5 3.5 18.5 8.5 1.2 2-.8 3.6-2.4 3-5.2-2-12.5-5.2-17.8-8.2-2.5-1.4-1-3.2 1.7-3.3z"/>
    <circle cx="88" cy="26" r="2.4" fill="#F8FAFC"/>
  </g>
  <text x="78" y="42" fill="#F8FAFC" font-family="Manrope, Inter, system-ui, sans-serif" font-size="28" font-weight="800" letter-spacing="0.12em">KUCHUP</text>
</svg>
